<svg xmlns="http://www.w3.org/2000/svg" xmlns:xlink="http://www.w3.org/1999/xlink" viewBox="0,0,256,256" width="96px" height="96px"><g fill="none" fill-rule="nonzero" stroke="none" stroke-width="none" stroke-linecap="butt" stroke-linejoin="none" stroke-miterlimit="10" stroke-dasharray="" stroke-dashoffset="0" font-family="none" font-weight="none" font-size="none" text-anchor="none" style="mix-blend-mode: normal"><path transform="scale(10.66667,10.66667)" d="M22,12c0,5.53 -4.47,10 -10,10c-5.53,0 -10,-4.47 -10,-10c0,-5.53 4.47,-10 10,-10c5.53,0 10,4.47 10,10z" id="strokeMainSVG" fill="#ffffff" stroke="#ffffff" stroke-width="3" stroke-linejoin="round"></path><g transform="scale(10.66667,10.66667)" fill="#583f9a" stroke="none" stroke-width="1" stroke-linejoin="miter"><path d="M12,2c-5.53,0 -10,4.47 -10,10c0,5.53 4.47,10 10,10c5.53,0 10,-4.47 10,-10c0,-5.53 -4.47,-10 -10,-10zM16.707,15.293c0.391,0.391 0.391,1.023 0,1.414c-0.195,0.195 -0.451,0.293 -0.707,0.293c-0.256,0 -0.512,-0.098 -0.707,-0.293l-3.293,-3.293l-3.293,3.293c-0.195,0.195 -0.451,0.293 -0.707,0.293c-0.256,0 -0.512,-0.098 -0.707,-0.293c-0.391,-0.391 -0.391,-1.023 0,-1.414l3.293,-3.293l-3.293,-3.293c-0.391,-0.391 -0.391,-1.023 0,-1.414c0.391,-0.391 1.023,-0.391 1.414,0l3.293,3.293l3.293,-3.293c0.391,-0.391 1.023,-0.391 1.414,0c0.391,0.391 0.391,1.023 0,1.414l-3.293,3.293z"></path></g></g></svg>