<?xml version="1.0" encoding="utf-8"?>
<svg width="1754px" height="315px" viewBox="0 0 1754 315" version="1.1" xmlns:xlink="http://www.w3.org/1999/xlink" xmlns="http://www.w3.org/2000/svg">
  <defs>
    <path d="M1754 0L1754 0L1754 315L0 315L0 0L1754 0Z" id="path_1" />
    <clipPath id="clip_1">
      <use xlink:href="#path_1" clip-rule="evenodd" fill-rule="evenodd" />
    </clipPath>
  </defs>
  <g id="Facebook Cover" clip-path="url(#clip_1)">
    <path d="M1754 0L1754 0L1754 315L0 315L0 0L1754 0Z" id="Facebook-Cover" fill="none" stroke="none" />
    <g id="Elaine-Celestia" transform="translate(62 -42)">
      <g stroke="#FFFFFF" stroke-width="10" id="Elaine-Celestia" fill="#583F9A">
        <path d="M10.5 70.7C10.5 70.7 -4.9 152.25 1.4 220.5C4.55 252.35 12.6 281.75 27.65 299.95C40.6 316.4 60.9 321.3 80.85 319.9C106.05 318.5 129.85 307.3 129.85 307.3L115.15 275.8C115.15 275.8 97.3 284.2 78.75 285.25C70 285.95 60.2 285.6 54.25 278.25C45.15 267.05 40.25 250.25 37.45 231.35L90.3 232.05L90.65 197.4L34.65 196.7L34.65 189.7C34.3 163.8 36.4 137.9 38.85 117.6C63.7 117.95 102.2 117.95 113.05 117.25L110.95 82.6C100.8 83.3 67.55 83.3 43.75 82.95L44.8 77L10.5 70.7ZM204.05 287.35C204.05 287.35 191.1 285.6 178.85 272.65C177.1 270.9 176.4 267.4 175.35 262.85C172.2 252 170.1 236.6 168.7 219.45C162.05 148.75 165.55 63.35 165.55 58.1L130.9 58.1C130.9 58.1 127.4 150.15 134.05 222.6C136.15 245.7 139.3 265.65 143.85 278.6C146.65 286.65 150.15 292.6 153.65 296.45C180.6 325.15 205.8 322 205.8 322L203.7 287.35L204.05 287.35ZM214.55 269.85C212.45 291.9 223.65 306.25 241.85 314.3C259 321.65 283.5 321.65 305.55 316.05L324.45 322C324.45 322 334.95 288.4 335.65 253.4C336 227.15 330.05 200.55 313.6 183.4C300.3 169.75 278.95 166.6 257.25 169.75C231 173.95 205.8 186.2 205.8 186.2L221.2 217.35C221.2 217.35 241.5 207.2 262.5 204.05C268.45 203 274.4 202.65 280 203.7C283.5 204.05 286.65 205.1 288.75 207.55C293.3 212.1 296.1 217.7 297.85 223.65C282.1 224.35 261.45 226.1 245.7 232.4C227.85 239.75 215.95 252 214.55 269.85ZM254.45 266.7C258.3 264.25 263.2 262.85 268.1 261.8C278.95 259 291.2 258.3 300.65 258.3C300.3 266.7 299.25 274.75 298.2 282.1C285.95 285.6 272.3 286.65 261.45 284.2C254.8 282.8 248.5 280 249.2 272.65C249.2 269.85 251.65 268.1 254.45 266.7ZM371 129.5C371 120.05 363.3 112.7 353.85 112.7C344.4 112.7 336.7 120.05 336.7 129.5C336.7 138.95 344.4 146.65 353.85 146.65C363.3 146.65 371 138.95 371 129.5ZM335.65 172.9L336.7 322L371.35 321.65L370.3 172.55L335.65 172.9ZM489.3 183.4C476.7 171.85 464.45 167.65 453.6 167.65C442.05 167.65 431.55 171.85 422.1 179.2C419.65 180.95 417.2 183.4 414.75 185.5C413.35 175.7 412.65 169.4 412.65 169.4L378.35 174.3C378.35 174.3 392.35 276.15 394.1 318.15L428.75 316.75C427.7 297.15 424.55 265.3 421.05 236.25C424.2 229.95 429.45 220.5 436.8 212.45C441.35 207.55 446.6 202.3 453.25 202.3C457.1 202.3 461.3 204.75 465.5 208.95C475.3 217.7 477.05 235.2 477.75 252.35C478.8 283.5 472.15 315 472.15 315L506.1 322C506.1 322 516.25 273 511 233.1C508.2 212.8 501.2 194.6 489.3 183.4ZM632.8 239.05C645.75 216.3 634.2 186.2 607.25 176.4C597.1 172.55 584.85 171.85 570.85 176.05C531.3 188.3 515.55 227.85 520.1 262.5C523.25 286.65 536.55 307.65 556.15 316.4C584.85 329.35 624.75 320.25 646.45 286.3L617.4 267.4C605.85 285.25 585.55 291.55 570.5 284.9C562.8 281.4 558.25 274.05 555.8 264.95C600.95 270.2 624.05 254.8 632.8 239.05ZM581 209.3C590.8 206.15 598.85 208.6 602 214.55C603.4 216.65 604.1 219.8 602.7 222.25C600.6 225.75 596.4 227.85 590.45 229.6C582.4 231.7 571.55 232.4 557.9 230.3C562.1 220.85 569.45 212.8 581 209.3ZM801.5 320.6C839.65 328.65 884.45 300.3 891.45 231L856.8 227.5C852.6 269.5 831.25 291.55 808.5 286.65C797.3 284.55 787.5 276.15 780.15 262.5C771.4 245.7 766.85 221.9 768.95 191.1C771.75 156.8 784.35 131.95 800.8 119C809.2 112.35 818.3 108.85 826.7 110.6C842.45 113.4 851.9 131.6 852.6 163.45L887.25 162.75C886.2 107.8 860.3 81.55 833 76.3C815.5 73.15 796.25 78.4 779.1 92.05C757.05 109.55 738.15 142.45 734.65 188.65C728.35 271.25 765.45 313.25 801.5 320.6ZM1011.85 239.05C1024.8 216.3 1013.25 186.2 986.3 176.4C976.15 172.55 963.9 171.85 949.9 176.05C910.35 188.3 894.6 227.85 899.15 262.5C902.3 286.65 915.6 307.65 935.2 316.4C963.9 329.35 1003.8 320.25 1025.5 286.3L996.45 267.4C984.9 285.25 964.6 291.55 949.55 284.9C941.85 281.4 937.3 274.05 934.85 264.95C980 270.2 1003.1 254.8 1011.85 239.05ZM960.05 209.3C969.85 206.15 977.9 208.6 981.05 214.55C982.45 216.65 983.15 219.8 981.75 222.25C979.65 225.75 975.45 227.85 969.5 229.6C961.45 231.7 950.6 232.4 936.95 230.3C941.15 220.85 948.5 212.8 960.05 209.3ZM1106.7 287.35C1106.7 287.35 1093.75 285.6 1081.5 272.65C1079.75 270.9 1079.05 267.4 1078 262.85C1074.85 252 1072.75 236.6 1071.35 219.45C1064.7 148.75 1068.2 63.35 1068.2 58.1L1033.55 58.1C1033.55 58.1 1030.05 150.15 1036.7 222.6C1038.8 245.7 1041.95 265.65 1046.5 278.6C1049.3 286.65 1052.8 292.6 1056.3 296.45C1083.25 325.15 1108.45 322 1108.45 322L1106.35 287.35L1106.7 287.35ZM1221.85 239.05C1234.8 216.3 1223.25 186.2 1196.3 176.4C1186.15 172.55 1173.9 171.85 1159.9 176.05C1120.35 188.3 1104.6 227.85 1109.15 262.5C1112.3 286.65 1125.6 307.65 1145.2 316.4C1173.9 329.35 1213.8 320.25 1235.5 286.3L1206.45 267.4C1194.9 285.25 1174.6 291.55 1159.55 284.9C1151.85 281.4 1147.3 274.05 1144.85 264.95C1190 270.2 1213.1 254.8 1221.85 239.05ZM1170.05 209.3C1179.85 206.15 1187.9 208.6 1191.05 214.55C1192.45 216.65 1193.15 219.8 1191.75 222.25C1189.65 225.75 1185.45 227.85 1179.5 229.6C1171.45 231.7 1160.6 232.4 1146.95 230.3C1151.15 220.85 1158.5 212.8 1170.05 209.3ZM1281 210C1284.5 206.85 1289.05 205.1 1294.3 204.05C1307.95 200.9 1326.15 203.7 1326.15 221.2L1360.8 220.5C1360.1 178.15 1320.55 162.75 1286.95 170.1C1263.15 175.35 1244.6 191.8 1242.85 212.8C1241.8 226.8 1244.95 236.6 1249.85 243.6C1256.85 254.1 1269.1 259.7 1283.8 261.45C1293.6 262.85 1304.1 262.5 1313.9 263.2C1317.05 263.55 1319.85 263.9 1322.3 264.6C1323.7 264.95 1324.75 265.3 1324.75 267.05C1326.15 284.9 1306.2 288.75 1291.85 287C1287.65 286.3 1284.15 285.25 1281 283.5C1279.25 282.8 1277.85 281.75 1277.85 280L1243.2 277.9C1241.8 301 1261.05 317.8 1287.3 321.3C1321.6 325.85 1362.9 306.6 1359.4 264.25C1357.3 237.65 1337.35 229.6 1311.45 228.2C1302.35 227.85 1292.9 228.2 1284.85 226.45C1282.4 226.1 1279.95 225.75 1278.55 224C1276.8 222.25 1277.15 219.45 1277.5 215.6C1277.5 213.15 1279.25 211.4 1281 210ZM1388.8 322L1423.45 322L1423.45 192.85L1457.75 192.85L1457.75 158.2L1423.45 158.2L1423.45 62.3L1388.8 62.3L1388.8 158.2L1353.8 158.2L1353.8 192.85L1388.8 192.85L1388.8 322ZM1493.1 129.5C1493.1 120.05 1485.4 112.7 1475.95 112.7C1466.5 112.7 1458.8 120.05 1458.8 129.5C1458.8 138.95 1466.5 146.65 1475.95 146.65C1485.4 146.65 1493.1 138.95 1493.1 129.5ZM1457.75 172.9L1458.8 322L1493.45 321.65L1492.4 172.55L1457.75 172.9ZM1509.2 269.85C1507.1 291.9 1518.3 306.25 1536.5 314.3C1553.65 321.65 1578.15 321.65 1600.2 316.05L1619.1 322C1619.1 322 1629.6 288.4 1630.3 253.4C1630.65 227.15 1624.7 200.55 1608.25 183.4C1594.95 169.75 1573.6 166.6 1551.9 169.75C1525.65 173.95 1500.45 186.2 1500.45 186.2L1515.85 217.35C1515.85 217.35 1536.15 207.2 1557.15 204.05C1563.1 203 1569.05 202.65 1574.65 203.7C1578.15 204.05 1581.3 205.1 1583.4 207.55C1587.95 212.1 1590.75 217.7 1592.5 223.65C1576.75 224.35 1556.1 226.1 1540.35 232.4C1522.5 239.75 1510.6 252 1509.2 269.85ZM1549.1 266.7C1552.95 264.25 1557.85 262.85 1562.75 261.8C1573.6 259 1585.85 258.3 1595.3 258.3C1594.95 266.7 1593.9 274.75 1592.85 282.1C1580.6 285.6 1566.95 286.65 1556.1 284.2C1549.45 282.8 1543.15 280 1543.85 272.65C1543.85 269.85 1546.3 268.1 1549.1 266.7Z" />
      </g>
    </g>
  </g>
</svg>